<svg xmlns="http://www.w3.org/2000/svg" viewBox="0 0 1186 207.9"><defs><style>.cls-1{fill:#fff;}</style></defs><title>logotype-white1</title><g id="Capa_2" data-name="Capa 2"><g id="Capa_1-2" data-name="Capa 1"><g id="Logotipo"><path class="cls-1" d="M40.24,201.73H0V6.17H86.38c40.77,0,63,21.46,63,60.62,0,39.71-23.07,65.19-59,65.19H40.24ZM77.79,98.45c21.47,0,31.39-9.39,31.39-29.24,0-20.12-9.92-29.51-31.39-29.51H40.24V98.45Z"/><path class="cls-1" d="M193.68,201.73H156.13V6.17h37.55Z"/><path class="cls-1" d="M333.71,201.73H292.94c-3.49-4.29-4.29-7-4.56-14.49-13.15,13.68-27.9,20.66-44,20.66-12.87,0-25.48-5.1-33.8-13.68-6.7-7.25-10.19-17.44-10.19-29.78,0-26,14-40.77,42.92-45.6l14.76-2.69c18.77-3,18.77-3,23.87-5.63a12.55,12.55,0,0,0,6.44-11.27c0-9.65-7.24-14.48-22-14.48-18.24,0-24.68,4.83-26.29,19.85H203.88c2.41-33.53,22.8-50.17,62-50.17S325.13,69.75,325.13,99v80.47c0,7.51,1.88,11.54,8.58,17.71Zm-45.33-68.41c-4.56,2.15-6.17,2.69-15.83,4.56l-13.14,2.42c-15.56,3.22-21.46,8.58-21.46,19.85,0,10.73,7.77,17.44,20.38,17.44,19.05,0,30.05-12.34,30.05-34.07Z"/><path class="cls-1" d="M457.92,87.18l-71.09,84.24h73.5v30.31H340.42V171.42l71.63-84.24h-66.8V56.87H457.92Z"/><path class="cls-1" d="M504.33,56.87v18C516.67,60.09,527.4,54.45,544,54.45c18,0,32.46,7.78,39.43,21.47,11.27-15,24.15-21.47,42.39-21.47,29,0,46.14,16.64,46.14,44.8V201.73H634.43V105.16c0-11.54-7.78-18.78-20.39-18.78-16.09,0-25.75,10.73-25.75,28.43v86.92H550.74V105.16c0-11.54-7.78-18.78-20.39-18.78-16.1,0-25.75,10.73-25.75,28.43v86.92H467V56.87Z"/><path class="cls-1" d="M716.21,141c.54,13.66,1.88,20.1,5.36,25.45,5.36,8,13.93,12.6,24.65,12.6,13.67,0,24.12-6.7,28.67-18.22h37c-8.3,28.4-34.56,46.89-67,46.89-41,0-66.18-28.4-66.18-74.76,0-48.5,25.45-78.52,67-78.52,29.2,0,52.52,15.81,62.17,42.08,3.48,10.18,5.62,23.58,5.62,38.05a63.19,63.19,0,0,1-.27,6.43Zm58.15-24.92c-.8-9.92-2.41-15.54-5.9-20.9a28.55,28.55,0,0,0-23.31-12.06c-16.61,0-26,11-28.4,33Z"/><path class="cls-1" d="M921.05,187c-9.39,14.22-22,20.93-40,20.93-17.7,0-35.41-9.12-45.33-23.07-9.66-14-15.56-33.8-15.56-53.39,0-43.72,26.29-77,60.89-77,18,0,30.58,6.71,40,21.2V6.17h37.56V201.73H921.05Zm-63.31-55.53c0,26.56,12.88,45.07,31.66,45.07s31.65-18.24,31.65-44.53c0-27.63-12.6-46.14-31.65-46.14C870.62,85.84,857.74,104.62,857.74,131.44Z"/><path class="cls-1" d="M972,56.87V201.73h37.56V56.87Z"/><rect class="cls-1" x="972.02" y="6.17" width="37.56" height="33.53"/><path class="cls-1" d="M1080.37,0a21.06,21.06,0,1,0,20.82,21.29C1101.19,9.35,1092.07,0,1080.37,0Zm0,30.88a9.94,9.94,0,0,1-10.07-9.82,10,10,0,0,1,10.07-9.83,9.68,9.68,0,0,1,9.59,9.83A9.83,9.83,0,0,1,1080.37,30.88Z"/><path class="cls-1" d="M1141,179.46V99c0-29.23-20.13-44.53-59.3-44.53s-59.55,16.63-62,50.16H1056c1.61-15,8-19.85,26.29-19.85,14.75,0,22,4.84,22,14.5a12.55,12.55,0,0,1-6.44,11.26c-5.09,2.68-5.09,2.68-23.88,5.64l-14.75,2.67c-29,4.83-42.92,19.59-42.92,45.61,0,12.34,3.48,22.54,10.19,29.78,8.32,8.59,20.93,13.68,33.8,13.68,16.1,0,30.86-7,44-20.66.27,7.51,1.08,10.2,4.56,14.49h40.77v-4.57C1142.91,191,1141,187,1141,179.46Zm-36.76-36c0,21.73-11,34.08-30,34.08-12.61,0-20.4-6.72-20.4-17.44,0-11.27,5.9-16.64,21.47-19.85l13.15-2.42c9.65-1.87,11.26-2.41,15.82-4.56Z"/><path class="cls-1" d="M1169.54,201.73a16.83,16.83,0,0,1-6.52-1.26,16.05,16.05,0,0,1-5.25-3.48,16.38,16.38,0,0,1-3.52-5.29A17,17,0,0,1,1153,185a17.19,17.19,0,0,1,1.28-6.69,16.26,16.26,0,0,1,3.52-5.31,15.92,15.92,0,0,1,5.25-3.49,16.83,16.83,0,0,1,6.52-1.26,16.42,16.42,0,0,1,6.43,1.26,16,16,0,0,1,8.74,8.8A17.19,17.19,0,0,1,1186,185a17,17,0,0,1-1.29,6.66,16,16,0,0,1-8.74,8.77A16.42,16.42,0,0,1,1169.54,201.73Zm0-2.46a13.29,13.29,0,0,0,12.57-8.54,16.23,16.23,0,0,0,0-11.38,13.91,13.91,0,0,0-2.85-4.51,12.73,12.73,0,0,0-4.32-3,13.58,13.58,0,0,0-5.4-1.06,13.74,13.74,0,0,0-5.46,1.06,12.69,12.69,0,0,0-4.31,3,13.77,13.77,0,0,0-2.86,4.51,16.23,16.23,0,0,0,0,11.38,13.33,13.33,0,0,0,2.86,4.48,13.28,13.28,0,0,0,9.77,4.06Zm-6.8-22.86H1171a7.57,7.57,0,0,1,4.37,1.23,4.11,4.11,0,0,1,1.8,3.63,4.25,4.25,0,0,1-.72,2.51,4.6,4.6,0,0,1-2.54,1.6v.12a4,4,0,0,1,2,1,4.16,4.16,0,0,1,.77,2.05,13.08,13.08,0,0,1,.17,1.35c0,.47.08.92.12,1.34a6.1,6.1,0,0,0,.17,1.09c.07.3.21.47.4.51v.46h-4.52c-.26-.15-.43-.64-.48-1.46s-.15-1.65-.26-2.49a2.31,2.31,0,0,0-2.57-2.23h-2.46v6.18h-4.57Zm4.57,7.37h2.92c1.6,0,2.4-.64,2.4-1.94s-.79-1.94-2.35-1.94h-3Z"/></g></g></g></svg>